<?xml version="1.0" encoding="utf-8"?>
<!-- Generator: Adobe Illustrator 26.0.2, SVG Export Plug-In . SVG Version: 6.00 Build 0)  -->
<svg version="1.1" id="Layer_1" xmlns="http://www.w3.org/2000/svg" xmlns:xlink="http://www.w3.org/1999/xlink" x="0px" y="0px"
	 viewBox="0 0 700 700" style="enable-background:new 0 0 700 700;" xml:space="preserve">
<path d="M568.8,218.1l-34.6-34.6l-61.9,61.9l-61.9-61.9l-34.6,34.6l61.9,61.9l-61.9,61.9l34.6,34.6l61.9-61.9l61.9,61.9l34.6-34.6
	L506.9,280L568.8,218.1z M549,341.9l-14.8,14.9l-61.9-61.9l-61.9,61.9l-14.9-14.9l61.9-61.9l-61.9-61.9l14.9-14.9l61.9,61.9
	l61.9-61.9l14.8,14.9L487.1,280L549,341.9z"/>
<path d="M134.4,203.4l-0.2,154l77.4,0.1l20,9.6v2.6h5.3l121.6,61.6l0.3-302.8l-148.1,74.9L134.4,203.4z M344.8,151.4l-0.3,257.2
	l-99-50.1l-30.8-15l-66.6-0.1l0.2-126l65.7,0.1L344.8,151.4z"/>
</svg>
