<?xml version="1.0" encoding="utf-8"?>
<!-- Generator: Adobe Illustrator 26.0.2, SVG Export Plug-In . SVG Version: 6.00 Build 0)  -->
<svg version="1.1" id="Layer_1" xmlns="http://www.w3.org/2000/svg" xmlns:xlink="http://www.w3.org/1999/xlink" x="0px" y="0px"
	 viewBox="0 0 500 400" style="enable-background:new 0 0 500 400;" xml:space="preserve">
<path d="M32.9,123.2c0,0-0.2,154.1-0.2,154.1l77.2,0.1c13,5.5,128.6,64.1,147,73.5l0.3-302.4l-148,74.8L32.9,123.2z M242.9,71.3
	l-0.3,257c-22.7-11.7-108.7-55-130-65c0,0-66.7-0.1-66.7-0.1s0.2-125.9,0.2-125.9l65.8,0.1L242.9,71.3z"/>
<path d="M304.7,145.6l-4.9-4.9l-34.7,34.6l4.9,4.9c5.3,5.2,8.2,12.4,8.2,19.8s-3,14.6-8.2,19.8l-4.9,5l34.6,34.6l4.9-4.9l0,0
	c14.4-14.4,22.6-34,22.6-54.4C327.2,179.5,319.1,159.9,304.7,145.6L304.7,145.6z M299.5,239.4l-15-15c5-7.1,7.8-15.6,7.8-24.3
	c0-8.7-2.7-17.2-7.8-24.3l15-15c8.9,11.2,13.8,25,13.8,39.3C313.3,214.2,308.4,228.1,299.5,239.4z"/>
<path d="M354.2,96.1l-4.9-5L314,126.4l4.9,4.9c18,18.3,28,42.9,28,68.6s-10.1,50.3-28,68.6l-4.9,4.9l35.3,35.4l4.9-4.9l0,0
	c27.6-27.6,43.1-65,43.1-104C397.3,160.9,381.8,123.6,354.2,96.1L354.2,96.1z M349.1,289l-15.6-15.7c17.7-20.4,27.4-46.4,27.4-73.3
	s-9.7-53-27.4-73.3l15.6-15.6l0,0c22,24.4,34.1,56.1,34.1,89S371.1,264.5,349.1,289L349.1,289z"/>
<path d="M403.7,46.5l-5-4.9l-34.6,34.6l5,4.9l0,0c20.9,20.9,35.9,46.8,43.5,75.3c7.6,28.5,7.6,58.5,0,87
	c-7.6,28.5-22.6,54.5-43.5,75.3l-5,5l34.6,34.6l5-4.9l0,0c40.7-40.7,63.6-95.9,63.6-153.4S444.4,87.2,403.7,46.5L403.7,46.5z
	 M398.7,338.4l-14.8-14.9c31.1-33.6,48.5-77.8,48.5-123.6s-17.3-90-48.5-123.6l14.8-14.9l0,0c35.1,37.6,54.6,87.1,54.6,138.5
	S433.7,300.8,398.7,338.4L398.7,338.4z"/>
</svg>
